<?xml version="1.0" standalone="no"?>
<!DOCTYPE svg PUBLIC "-//W3C//DTD SVG 20010904//EN"
 "http://www.w3.org/TR/2001/REC-SVG-20010904/DTD/svg10.dtd">
<svg version="1.0" xmlns="http://www.w3.org/2000/svg"
 width="300.000000pt" height="310.000000pt" viewBox="0 0 300.000000 310.000000"
 preserveAspectRatio="xMidYMid meet">
<metadata>
Created by potrace 1.10, written by Peter Selinger 2001-2011
</metadata>
<g transform="translate(0.000000,310.000000) scale(0.100000,-0.100000)"
fill="#000000" stroke="none">
<path d="M1450 2934 c-150 -25 -187 -34 -219 -58 -17 -13 -52 -31 -76 -41 -25
-9 -43 -20 -40 -25 3 -4 -9 -13 -26 -19 -17 -6 -28 -15 -25 -20 7 -11 -15 -30
-40 -35 -62 -13 -96 -43 -140 -126 -15 -28 -19 -57 -19 -145 0 -62 5 -123 12
-140 17 -43 23 -217 11 -300 -6 -38 -12 -131 -12 -205 -1 -74 -5 -145 -9 -156
-10 -27 15 -54 48 -54 20 0 25 -6 30 -37 3 -21 12 -66 20 -100 16 -63 20 -220
7 -239 -10 -16 -67 -44 -88 -44 -36 0 -284 -91 -438 -160 -88 -39 -216 -94
-285 -121 -76 -30 -133 -58 -143 -72 -16 -20 -18 -59 -18 -429 l0 -408 1500 0
1500 0 0 398 0 397 -108 57 c-59 31 -120 59 -135 62 -16 3 -34 9 -40 14 -7 5
-52 25 -102 45 -49 20 -124 50 -165 67 -41 18 -111 45 -155 61 -44 16 -123 54
-175 84 -78 44 -96 51 -99 37 -2 -9 8 -25 23 -37 14 -11 31 -35 37 -53 10 -28
8 -39 -15 -86 -57 -116 -176 -208 -341 -263 -74 -25 -93 -27 -255 -27 -165 -1
-178 0 -223 23 -56 27 -61 34 -48 59 7 14 6 25 -4 39 -13 18 -13 22 1 27 9 4
13 2 8 -5 -4 -7 -1 -10 7 -7 8 3 13 11 11 17 -1 8 3 9 15 2 51 -27 158 -53
238 -57 80 -5 92 -4 110 13 11 11 27 17 34 15 8 -3 20 3 26 11 7 9 22 18 33
20 12 2 25 7 29 12 5 4 -6 5 -22 2 -46 -9 -45 25 1 43 19 8 34 18 34 23 0 5 6
7 12 5 15 -5 42 19 51 45 4 9 12 17 18 17 8 0 8 -5 -2 -16 -11 -13 -6 -13 27
3 21 9 40 18 42 19 2 1 4 14 6 28 2 16 23 48 49 76 25 26 56 66 70 87 34 55
95 202 107 259 6 27 14 63 18 79 3 17 6 112 6 213 -1 100 2 182 6 182 5 0 6
-8 3 -19 -3 -10 0 -22 6 -25 14 -9 12 -18 20 99 7 96 20 167 44 230 14 39 17
119 5 161 -13 50 -57 110 -98 138 -27 18 -39 34 -44 60 -8 43 -112 143 -193
183 -30 15 -75 45 -100 66 -26 21 -56 43 -67 49 -31 17 -160 18 -256 2z m267
-246 c52 0 139 -41 204 -98 107 -92 132 -137 134 -243 0 -31 6 -51 15 -57 10
-7 11 -10 3 -10 -9 0 -11 -11 -8 -32 2 -18 9 -80 15 -138 7 -58 16 -127 21
-154 13 -71 10 -212 -5 -278 -8 -32 -12 -58 -10 -58 3 0 -3 -11 -12 -25 -9
-14 -13 -32 -10 -41 4 -9 0 -24 -8 -33 -8 -9 -16 -27 -18 -41 -2 -15 -9 -24
-17 -22 -8 2 -11 -3 -8 -13 4 -8 2 -15 -3 -15 -6 0 -10 7 -10 15 0 8 -5 15
-11 15 -6 0 -8 7 -5 18 7 16 6 16 -11 0 -16 -17 -16 -18 1 -31 20 -15 19 -48
-3 -55 -11 -4 -12 2 -7 24 l6 29 -21 -27 c-11 -16 -25 -28 -30 -28 -16 0 -10
29 9 40 14 9 12 10 -10 5 -16 -3 -28 -1 -28 4 0 13 -53 21 -67 10 -7 -7 -13
-6 -17 0 -3 5 -1 11 4 13 6 2 11 14 12 28 0 14 7 47 14 74 20 72 17 97 -14
136 -16 19 -38 55 -50 80 -12 25 -33 59 -47 75 l-25 30 6 -28 c4 -16 20 -56
35 -88 39 -80 38 -89 -8 -82 -47 7 -112 62 -88 76 8 4 15 15 15 23 0 17 -46
37 -63 27 -6 -4 -2 -10 12 -14 18 -7 20 -11 9 -28 -6 -11 -16 -17 -20 -15 -4
3 -8 -1 -8 -8 0 -9 -3 -9 -10 2 -5 8 -10 10 -10 3 0 -6 -8 -9 -19 -6 -11 3
-21 -2 -24 -11 -8 -20 -27 -21 -27 -2 0 8 -8 17 -17 19 -14 4 -13 5 4 6 22 1
44 21 24 21 -6 0 -21 16 -33 35 -13 19 -28 35 -35 35 -7 0 -17 8 -23 18 -9 14
-10 11 -6 -15 4 -25 1 -34 -18 -47 -22 -14 -25 -13 -40 3 -21 23 -20 33 4 64
14 17 26 23 40 20 11 -3 21 0 21 6 4 30 19 63 42 88 29 33 41 129 19 151 -9 9
-27 16 -40 14 -18 -3 -23 2 -28 27 -4 17 -10 31 -15 31 -5 0 -9 6 -9 14 0 17
-21 26 -75 33 -71 9 -80 11 -99 19 -13 5 -17 4 -13 -3 5 -7 0 -9 -13 -6 -11 3
-20 1 -20 -5 0 -5 -7 -12 -15 -16 -22 -8 -18 10 7 34 28 26 31 47 11 77 -12
18 -13 27 -4 36 8 8 11 7 12 -3 0 -8 5 -4 11 10 6 14 10 29 9 34 -1 5 4 4 13
-3 9 -7 16 -8 20 -2 4 5 2 13 -4 16 -6 4 -10 21 -9 38 1 18 1 37 -1 42 -5 22
1 34 21 40 11 4 24 17 29 30 17 45 49 56 172 58 62 1 115 5 118 8 3 3 25 15
49 27 33 15 48 18 58 11 7 -6 29 -11 50 -11z m468 -238 c3 -5 4 -10 1 -10 -3
0 -8 5 -11 10 -3 6 -4 10 -1 10 3 0 8 -4 11 -10z m-855 -306 c20 -4 43 -16 53
-30 20 -27 14 -52 -8 -34 -8 6 -44 16 -82 21 -73 10 -98 24 -73 39 17 11 59
12 110 4z m26 -114 c-39 -46 -90 -199 -79 -239 3 -11 17 -21 34 -25 16 -3 29
-11 29 -19 0 -19 -20 -36 -35 -31 -7 3 -16 1 -20 -5 -3 -6 -15 -11 -26 -11
-28 0 -79 -40 -79 -62 0 -10 -4 -18 -10 -18 -5 0 -10 7 -10 15 0 8 -4 15 -8
15 -12 0 -52 78 -52 102 0 10 -4 16 -10 13 -5 -3 -8 16 -7 49 1 35 -2 51 -8
46 -6 -5 -10 2 -9 21 1 16 2 44 3 63 1 28 7 38 31 50 17 8 46 13 65 11 19 -2
35 1 35 6 0 5 -4 9 -10 9 -5 0 -10 4 -10 9 0 4 28 11 62 15 40 4 65 12 71 21
7 13 11 13 32 -2 19 -15 21 -21 11 -33z m211 -317 c-4 -3 -7 0 -7 7 0 7 3 10
7 7 3 -4 3 -10 0 -14z m-670 -40 c-4 -3 -10 -3 -14 0 -3 4 0 7 7 7 7 0 10 -3
7 -7z m767 -14 c10 8 16 9 21 1 3 -5 1 -10 -5 -10 -6 0 -8 -4 -5 -10 3 -5 14
-10 24 -10 10 0 26 -10 37 -21 l19 -22 -47 5 c-52 6 -65 -5 -21 -17 36 -9 50
-21 68 -59 23 -52 24 -99 0 -90 -8 4 -15 12 -15 20 0 18 -51 8 -63 -13 -5 -7
-25 -13 -49 -13 -34 0 -39 -2 -29 -14 9 -11 9 -25 1 -57 -9 -32 -14 -39 -21
-28 -8 12 -11 11 -23 -4 -13 -16 -15 -16 -39 3 -14 11 -32 20 -41 20 -14 0
-19 11 -15 36 0 4 -5 11 -13 15 -15 10 -13 10 57 14 28 2 56 3 63 4 6 1 12 10
12 20 0 11 9 23 20 26 11 3 20 10 20 14 0 5 10 8 22 7 40 -2 29 21 -14 29 -24
4 -50 9 -58 11 -8 2 -45 7 -82 10 -36 4 -72 10 -80 15 -21 13 20 38 64 39 20
0 40 5 43 10 4 6 -10 10 -34 10 -23 0 -41 4 -41 9 0 5 -10 11 -22 13 l-23 3
25 14 c14 8 47 14 75 13 27 -1 68 2 90 7 23 4 45 3 53 -2 8 -6 17 -5 26 2z
m-94 -208 c0 -5 -13 -11 -30 -13 -16 -3 -30 -1 -30 3 0 4 12 10 28 12 15 2 28
5 30 6 1 0 2 -3 2 -8z m110 -73 c0 -5 -7 -8 -15 -4 -10 3 -15 -1 -15 -13 0
-10 -7 -22 -16 -25 -14 -5 -15 -4 -4 9 7 8 10 22 6 30 -3 9 -2 13 3 10 5 -3
12 -1 16 5 7 12 25 4 25 -12z m147 -5 c-4 -3 -7 0 -7 7 0 7 3 10 7 7 3 -4 3
-10 0 -14z m-151 -46 c-17 -18 -32 -27 -34 -20 -4 16 25 49 47 50 14 1 11 -5
-13 -30z m474 -209 c0 -4 -9 -8 -20 -8 -11 0 -20 4 -20 9 0 6 9 9 20 8 11 -1
20 -5 20 -9z m-293 -25 c-4 -3 -7 0 -7 7 0 7 3 10 7 7 3 -4 3 -10 0 -14z
m-1060 -170 c-4 -3 -10 -3 -14 0 -3 4 0 7 7 7 7 0 10 -3 7 -7z m1561 -23 c0
-16 -3 -30 -7 -30 -5 0 -8 47 -2 58 4 9 8 -2 9 -28z m-2066 -4 c7 4 8 2 4 -4
-12 -19 -36 -15 -29 5 4 11 8 13 11 5 2 -7 9 -9 14 -6z m1025 7 c-4 -3 -10 -3
-14 0 -3 4 0 7 7 7 7 0 10 -3 7 -7z m33 -13 c0 -5 -2 -10 -4 -10 -3 0 -8 5
-11 10 -3 6 -1 10 4 10 6 0 11 -4 11 -10z m35 -10 c3 -5 2 -10 -4 -10 -5 0
-13 5 -16 10 -3 6 -2 10 4 10 5 0 13 -4 16 -10z m1520 -72 c6 -4 2 -8 -7 -8
-10 0 -18 7 -18 17 0 9 3 12 8 7 4 -5 12 -12 17 -16z m-2390 -28 c-5 -16 -3
-19 12 -14 17 5 17 5 0 -9 -11 -9 -26 -13 -34 -10 -8 3 -11 9 -6 12 5 3 12 14
16 24 9 24 20 22 12 -3z m490 11 c3 -5 1 -12 -5 -16 -5 -3 -10 1 -10 9 0 18 6
21 15 7z m175 -1 c0 -13 -11 -13 -30 0 -12 8 -11 10 8 10 12 0 22 -4 22 -10z
m924 -32 c-5 -17 -3 -20 10 -15 9 4 16 2 16 -2 0 -13 -32 -23 -42 -13 -12 12
1 64 13 56 6 -3 7 -15 3 -26z m-2067 15 c-4 -3 -10 -3 -14 0 -3 4 0 7 7 7 7 0
10 -3 7 -7z m990 -20 c-4 -3 -7 0 -7 7 0 7 3 10 7 7 3 -4 3 -10 0 -14z m1597
-15 c-4 -14 -2 -18 5 -14 6 4 11 2 11 -3 0 -17 -26 -13 -41 6 -12 14 -12 16 0
8 11 -6 13 -4 8 7 -6 18 1 30 15 22 5 -3 6 -15 2 -26z m-1614 2 c0 -5 -8 -10
-17 -10 -15 0 -16 2 -3 10 19 12 20 12 20 0z m595 -10 c3 -5 -1 -10 -10 -10
-9 0 -13 5 -10 10 3 6 8 10 10 10 2 0 7 -4 10 -10z m1332 -102 c-3 -8 -6 -5
-6 6 -1 11 2 17 5 13 3 -3 4 -12 1 -19z m-542 -30 c-6 -17 -4 -20 9 -15 9 4
16 2 16 -3 0 -6 -2 -10 -4 -10 -2 0 -11 -3 -19 -6 -10 -3 -16 3 -19 20 -5 26
-1 36 14 36 5 0 6 -10 3 -22z m-1630 -20 c-6 -17 -4 -20 11 -14 18 6 18 5 0
-9 -20 -15 -46 -5 -46 19 0 6 5 4 11 -4 9 -12 10 -11 6 8 -4 15 0 22 10 22 10
0 12 -6 8 -22z m1101 -15 c-2 -21 -6 -37 -10 -35 -3 1 -13 5 -21 8 -8 4 -15
11 -15 16 0 6 7 4 16 -3 14 -11 16 -10 14 11 -3 34 -2 40 10 40 5 0 8 -17 6
-37z m-566 12 c0 -9 6 -12 18 -9 14 5 14 3 -2 -10 -11 -9 -23 -16 -27 -16 -13
0 -31 29 -24 40 9 15 35 12 35 -5z m1565 -106 c-5 -22 -4 -29 4 -25 6 4 11 2
11 -3 0 -6 -8 -11 -18 -11 -15 0 -18 8 -18 35 1 22 6 35 14 35 10 0 12 -8 7
-31z m-2788 -6 c-4 -3 -10 -3 -14 0 -3 4 0 7 7 7 7 0 10 -3 7 -7z m2763 -3 c0
-5 -2 -10 -4 -10 -3 0 -8 5 -11 10 -3 6 -1 10 4 10 6 0 11 -4 11 -10z m-2780
-40 c0 -5 -5 -10 -11 -10 -5 0 -7 5 -4 10 3 6 8 10 11 10 2 0 4 -4 4 -10z
m2054 -23 c-2 -12 -2 -16 2 -9 7 14 24 16 24 2 0 -14 -37 -31 -54 -24 -9 3
-16 10 -16 15 0 4 7 6 15 3 9 -4 15 0 15 10 0 9 -6 16 -12 16 -9 0 -8 3 2 9
20 13 29 5 24 -22z m-1657 -2 c-7 -14 -19 -25 -27 -25 -12 0 -12 2 -2 9 7 4
12 12 11 17 -3 17 1 24 15 24 11 0 12 -5 3 -25z m567 -20 c-5 -21 -3 -24 12
-19 18 5 18 5 0 -10 -11 -9 -23 -16 -27 -16 -11 0 -32 30 -25 37 3 3 6 1 6 -5
0 -7 5 -12 10 -12 6 0 10 7 10 15 0 8 -5 15 -11 15 -5 0 -7 5 -4 10 3 6 13 10
21 10 10 0 13 -7 8 -25z m1663 -11 c-2 -13 0 -21 4 -18 5 3 9 1 9 -5 0 -17
-20 -23 -35 -11 -8 7 -15 20 -15 29 0 14 2 14 11 1 8 -12 10 -12 8 5 -2 31 0
37 12 29 6 -3 9 -17 6 -30z m-1125 -1 c-5 -25 -4 -27 11 -14 10 7 17 9 17 3 0
-20 -28 -34 -47 -23 -11 6 -13 11 -5 11 7 0 12 8 11 18 -2 25 0 32 10 32 4 0
6 -12 3 -27z m-838 -186 c-4 -24 -3 -28 5 -17 5 8 12 12 16 9 3 -3 -4 -14 -15
-24 -20 -18 -21 -18 -43 5 -19 20 -19 22 -3 16 15 -5 17 -2 12 18 -4 15 -1 26
7 29 21 7 27 -2 21 -36z m1690 0 c-4 -24 -3 -28 5 -17 5 8 12 12 16 9 3 -3 -4
-14 -15 -24 -16 -14 -22 -15 -35 -5 -8 7 -15 18 -14 24 0 7 2 6 6 -1 8 -20 23
-15 23 7 0 11 -5 20 -11 20 -8 0 -8 5 1 15 18 22 30 8 24 -28z m-589 3 c3 -5
1 -10 -4 -10 -6 0 -11 -9 -11 -20 0 -25 17 -26 23 -2 4 14 5 14 6 1 0 -9 -5
-22 -13 -28 -15 -12 -46 -5 -46 11 0 5 5 6 11 2 7 -4 10 3 9 17 -1 13 -2 27
-1 32 1 10 19 9 26 -3z m-522 -16 c3 -3 1 -14 -6 -25 -6 -10 -8 -22 -4 -26 5
-4 12 -1 17 7 6 8 10 10 10 4 0 -18 -26 -35 -44 -28 -9 3 -16 10 -16 16 0 5 5
6 11 2 7 -4 10 3 9 17 -3 39 5 51 23 33z"/>
<path d="M1210 2340 c0 -7 3 -10 7 -7 3 4 3 10 0 14 -4 3 -7 0 -7 -7z"/>
<path d="M1636 2215 c-10 -8 -15 -19 -11 -25 5 -8 12 -4 22 10 19 26 14 33
-11 15z"/>
<path d="M1678 2214 c-28 -15 -40 -41 -15 -31 7 3 21 -1 31 -9 18 -12 18 -14
2 -20 -9 -4 -15 -12 -12 -19 2 -7 -4 -21 -14 -30 -14 -13 -16 -20 -7 -39 14
-29 92 -50 121 -32 14 9 38 10 88 3 38 -5 73 -6 76 -2 4 4 -5 17 -19 29 -19
17 -45 25 -95 29 -73 7 -96 19 -75 40 22 22 139 12 200 -18 71 -35 90 -31 57
14 -35 47 -84 77 -131 80 -21 1 -44 6 -51 12 -8 7 -13 6 -16 -3 -4 -10 -13
-10 -45 0 -51 15 -62 15 -95 -4z m129 -151 c-4 -3 -7 0 -7 7 0 7 3 10 7 7 3
-4 3 -10 0 -14z"/>
<path d="M2035 2070 c3 -5 8 -10 11 -10 3 0 2 5 -1 10 -3 6 -8 10 -11 10 -3 0
-2 -4 1 -10z"/>
<path d="M1753 1453 c4 -3 10 -3 14 0 3 4 0 7 -7 7 -7 0 -10 -3 -7 -7z"/>
<path d="M1270 570 c0 -7 3 -10 7 -7 3 4 3 10 0 14 -4 3 -7 0 -7 -7z"/>
<path d="M2020 1090 c0 -7 3 -10 7 -7 3 4 3 10 0 14 -4 3 -7 0 -7 -7z"/>
<path d="M1700 960 c-9 -6 -10 -10 -3 -10 6 0 15 5 18 10 8 12 4 12 -15 0z"/>
<path d="M1728 933 c7 -3 16 -2 19 1 4 3 -2 6 -13 5 -11 0 -14 -3 -6 -6z"/>
<path d="M1613 863 c4 -3 10 -3 14 0 3 4 0 7 -7 7 -7 0 -10 -3 -7 -7z"/>
</g>
</svg>
